<svg width="175" height="16" viewBox="0 0 175 16" fill="none" xmlns="http://www.w3.org/2000/svg">
<path d="M7.71462 0C6.70152 0 5.69834 0.199544 4.76236 0.58724C3.82638 0.974936 2.97593 1.54319 2.25956 2.25956C0.812788 3.70633 0 5.66857 0 7.71462C0 11.1245 2.2141 14.0175 5.2768 15.0435C5.66253 15.1052 5.78596 14.8661 5.78596 14.6578V13.354C3.64901 13.8169 3.19385 12.3202 3.19385 12.3202C2.83898 11.4253 2.33753 11.1862 2.33753 11.1862C1.6355 10.7079 2.39153 10.7233 2.39153 10.7233C3.16299 10.7773 3.57187 11.5179 3.57187 11.5179C4.24304 12.6905 5.37709 12.3434 5.81682 12.1582C5.88625 11.6568 6.08683 11.3173 6.30284 11.1245C4.5902 10.9316 2.79269 10.2682 2.79269 7.32889C2.79269 6.47256 3.08585 5.78596 3.5873 5.23822C3.51015 5.04536 3.24014 4.24304 3.66444 3.20157C3.66444 3.20157 4.31247 2.99327 5.78596 3.98846C6.39542 3.81874 7.05887 3.73387 7.71462 3.73387C8.37036 3.73387 9.03382 3.81874 9.64327 3.98846C11.1168 2.99327 11.7648 3.20157 11.7648 3.20157C12.1891 4.24304 11.9191 5.04536 11.8419 5.23822C12.3434 5.78596 12.6365 6.47256 12.6365 7.32889C12.6365 10.2759 10.8313 10.9239 9.11096 11.1168C9.38869 11.3559 9.64327 11.8265 9.64327 12.544V14.6578C9.64327 14.8661 9.76671 15.1129 10.1602 15.0435C13.2229 14.0097 15.4292 11.1245 15.4292 7.71462C15.4292 6.70152 15.2297 5.69834 14.842 4.76236C14.4543 3.82638 13.886 2.97593 13.1697 2.25956C12.4533 1.54319 11.6029 0.974936 10.6669 0.58724C9.73089 0.199544 8.72772 0 7.71462 0Z" fill="white"/>
<path d="M61.1079 10.5054C61.8976 10.5054 62.6549 10.1917 63.2134 9.63326C63.7718 9.07486 64.0855 8.3175 64.0855 7.5278C64.0855 6.7381 63.7718 5.98075 63.2134 5.42234C62.6549 4.86394 61.8976 4.55023 61.1079 4.55023C60.3182 4.55023 59.5608 4.86394 59.0024 5.42234C58.444 5.98075 58.1303 6.7381 58.1303 7.5278C58.1303 8.3175 58.444 9.07486 59.0024 9.63326C59.5608 10.1917 60.3182 10.5054 61.1079 10.5054Z" stroke="white" stroke-width="1.1134" stroke-linecap="round" stroke-linejoin="round"/>
<path d="M54.4084 10.5053V4.55014C54.4084 3.56301 54.8005 2.61631 55.4985 1.91831C56.1965 1.22031 57.1432 0.828172 58.1303 0.828172H64.0855C65.0726 0.828172 66.0193 1.22031 66.7173 1.91831C67.4153 2.61631 67.8075 3.56301 67.8075 4.55014V10.5053C67.8075 11.4924 67.4153 12.4391 66.7173 13.1371C66.0193 13.8351 65.0726 14.2272 64.0855 14.2272H58.1303C57.1432 14.2272 56.1965 13.8351 55.4985 13.1371C54.8005 12.4391 54.4084 11.4924 54.4084 10.5053Z" stroke="white" stroke-width="1.1134"/>
<path d="M65.2021 3.44279L65.2112 3.43278" stroke="white" stroke-width="1.1134" stroke-linecap="round" stroke-linejoin="round"/>
<path d="M119.78 0.219132C120.21 0.219132 120.623 0.390245 120.928 0.694829C121.233 0.999412 121.404 1.41252 121.404 1.84326V13.2122C121.404 13.6429 121.233 14.056 120.928 14.3606C120.623 14.6652 120.21 14.8363 119.78 14.8363H108.411C107.98 14.8363 107.567 14.6652 107.262 14.3606C106.958 14.056 106.787 13.6429 106.787 13.2122V1.84326C106.787 1.41252 106.958 0.999412 107.262 0.694829C107.567 0.390245 107.98 0.219132 108.411 0.219132H119.78ZM119.374 12.8061V8.50219C119.374 7.80008 119.095 7.12672 118.598 6.63025C118.102 6.13378 117.428 5.85486 116.726 5.85486C116.036 5.85486 115.232 6.27714 114.842 6.91055V6.00916H112.577V12.8061H114.842V8.80266C114.842 8.17737 115.346 7.66577 115.971 7.66577C116.273 7.66577 116.562 7.78555 116.775 7.99876C116.988 8.21196 117.108 8.50114 117.108 8.80266V12.8061H119.374ZM109.937 4.73421C110.299 4.73421 110.646 4.59048 110.902 4.33463C111.158 4.07878 111.302 3.73177 111.302 3.36994C111.302 2.61472 110.693 1.99755 109.937 1.99755C109.573 1.99755 109.224 2.14214 108.967 2.39952C108.71 2.65689 108.565 3.00596 108.565 3.36994C108.565 4.12516 109.182 4.73421 109.937 4.73421ZM111.066 12.8061V6.00916H108.817V12.8061H111.066Z" fill="white"/>
<g clip-path="url(#clip0_0_172)">
<path d="M171.894 0.921334H174.136L169.239 6.51849L175 14.1334H170.489L166.957 9.5144L162.914 14.1334H160.671L165.909 8.14648L160.383 0.921943H165.008L168.201 5.14387L171.894 0.921334ZM171.108 12.7923H172.35L164.333 2.19242H163L171.108 12.7923Z" fill="white"/>
</g>
<defs>
<clipPath id="clip0_0_172">
<rect width="14.5754" height="14.5754" fill="white" transform="translate(160.383 0.219132) scale(1.00287)"/>
</clipPath>
</defs>
</svg>
